<svg width="100" height="100" viewBox="0 0 100 100" fill="none" xmlns="http://www.w3.org/2000/svg">
<mask id="mask0_2106_1533" style="mask-type:alpha" maskUnits="userSpaceOnUse" x="19" y="25" width="61" height="51">
<path fill-rule="evenodd" clip-rule="evenodd" d="M19.3877 26.7224H27.1551V28.7365L19.3877 38.8436V26.7224Z" fill="black"/>
<path fill-rule="evenodd" clip-rule="evenodd" d="M19.3877 42.7764L27.1551 32.6311V58.9944H19.3877V42.7764Z" fill="black"/>
<path fill-rule="evenodd" clip-rule="evenodd" d="M53.0664 46.0654L52.9429 46.4079L52.8114 46.7321L52.6639 47.0643L52.5079 47.3795L52.3449 47.6869L52.1634 47.9944L51.9749 48.2929L51.7709 48.5745L51.5664 48.8562L51.3439 49.1288L51.1154 49.3936L50.8774 49.6416L50.6224 49.8884L50.3684 50.1197L50.1064 50.3497L49.8284 50.5626L49.5494 50.767L49.2624 50.9558L48.9594 51.1339L48.6559 51.3056L48.3439 51.467L48.0324 51.6119L47.7049 51.7401L47.3774 51.8602L47.0412 51.9697L46.7052 52.0641L46.3607 52.1419L46.0091 52.21L45.6562 52.2604L45.2948 52.2942L44.9345 52.32L44.5659 52.3291L44.1066 52.32L43.6559 52.2776L43.2134 52.218L42.7699 52.1327L42.336 52.0308L41.9191 51.9026L41.4996 51.7567L41.0899 51.5861L40.697 51.3989L40.3115 51.1854L39.9344 50.9633L39.5743 50.7166L39.2214 50.4518L38.878 50.1701L38.5493 49.8794L38.2374 49.5642L37.9426 49.2398L37.6562 48.8988L37.3939 48.5409L37.14 48.1741L36.9103 47.798L36.6892 47.4053L36.4922 46.9958L36.3121 46.5862L36.1477 46.1598L36.0088 45.7244L35.8855 45.2813L35.7791 44.8291L35.7054 44.3679L35.6474 43.9067L35.6063 43.4286L35.5991 42.9519L35.6063 42.4649L35.6474 41.9958L35.7054 41.5268L35.7791 41.0579L35.8855 40.6044L36.0088 40.1613L36.1477 39.7258L36.3121 39.2994L36.4922 38.8808L36.6892 38.4712L36.9103 38.0799L37.14 37.6949L37.3939 37.3279L37.6562 36.97L37.9426 36.6276L38.2374 36.3034L38.5493 35.9881L38.878 35.6987L39.2214 35.4171L39.5743 35.1522L39.9344 34.9055L40.3115 34.6832L40.697 34.47L41.0899 34.2814L41.4996 34.1109L41.9191 33.9663L42.336 33.8382L42.7699 33.7272L43.2134 33.6497L43.6559 33.5902L44.1066 33.5476L44.5659 33.5399L44.9188 33.5476L45.2633 33.5657L45.6066 33.5993L45.9426 33.6497L46.2798 33.7103L46.6145 33.7866L46.9433 33.881L47.2624 33.9752L47.5744 34.0942L47.8934 34.2129L48.1969 34.3499L48.4914 34.5037L48.7879 34.6575L49.0824 34.8279L49.3604 35.0075L49.6399 35.1949L49.9019 35.4004L50.1644 35.6135L50.4179 35.8267L50.6649 36.0566L50.9014 36.2957L51.1314 36.5437L51.3524 36.7994L51.5664 37.0631L51.7709 37.3279L51.9679 37.6096L52.1564 37.8913L52.3279 38.1897L52.4924 38.488L52.6554 38.7879L52.7954 39.103L52.9344 39.4184H60.9429L60.7784 38.6844L60.5899 37.9597L60.3689 37.2426L60.1234 36.5437L59.8444 35.8602L59.5409 35.1949L59.2134 34.5385L58.8604 33.8978L58.4764 33.2828L58.0739 32.6781L57.6484 32.0981L57.1964 31.5348L56.7299 30.9882L56.2379 30.4675L55.7219 29.9728L55.1884 29.4946L54.6399 29.0347L54.0744 28.6084L53.4834 28.1989L52.8779 27.823L52.2624 27.465L51.6234 27.1395L50.9754 26.841L50.3034 26.5684L49.6314 26.3293L48.9349 26.1162L48.2379 25.9379L47.5249 25.7828L46.7959 25.664L46.0574 25.5787L45.3201 25.527L44.5659 25.5103L43.7054 25.5362L42.8605 25.6046L42.0254 25.7143L41.2047 25.8681L40.4022 26.0568L39.6069 26.2945L38.8273 26.5684L38.0743 26.8849L37.3359 27.2337L36.6155 27.6175L35.9096 28.036L35.2377 28.4882L34.5825 28.9754L33.9504 29.4946L33.345 30.0411L32.7624 30.6213L32.2051 31.2272L31.6806 31.859L31.1887 32.5153L30.7221 33.1989L30.287 33.9067L29.8773 34.6407L29.5087 35.3912L29.1799 36.16L28.8777 36.9532L28.6155 37.7634L28.3858 38.5914L28.2058 39.4364L28.057 40.2982L27.9507 41.1676L27.8855 42.0553L27.8613 42.9519L27.8855 43.8471L27.9507 44.7258L28.057 45.5965L28.2058 46.4492L28.3858 47.2863L28.6155 48.1133L28.8777 48.9247L29.1799 49.7089L29.5087 50.4764L29.8773 51.2283L30.287 51.9622L30.7221 52.6702L31.1887 53.3537L31.6806 54.0097L32.2051 54.64L32.7624 55.2478L33.345 55.8185L33.9504 56.3743L34.5825 56.886L35.2377 57.3715L35.9096 57.8328L36.6155 58.2512L37.3359 58.6353L38.0743 58.984L38.8273 59.3005L39.6069 59.573L40.4022 59.8042L41.2047 59.9994L42.0254 60.1529L42.8605 60.2644L43.7054 60.3326L44.5659 60.3583L45.3285 60.3417L46.09 60.2902L46.8357 60.1958L47.5659 60.0767L48.2959 59.9233L49.0089 59.7361L49.7049 59.514L50.3939 59.2656L51.0744 58.984L51.7294 58.6777L52.3689 58.3365L52.9999 57.9776L53.6064 57.585L54.2049 57.1671L54.7789 56.7229L55.3364 56.2541L55.8694 55.759L56.3854 55.2478L56.8769 54.7103L57.3534 54.147L57.8029 53.5747L58.2294 52.9685L58.6309 52.3548L59.0079 51.7143L59.3609 51.0669L59.6884 50.3924L59.9834 49.7089L60.2539 49.01L60.4994 48.2929L60.7134 47.5591L60.8934 46.8162L61.0494 46.0654H53.0664Z" fill="black"/>
<path fill-rule="evenodd" clip-rule="evenodd" d="M61.332 26.7224H69.0555V51.1859H79.6915L73.8005 58.9953H61.332V26.7224Z" fill="black"/>
<path fill-rule="evenodd" clip-rule="evenodd" d="M19.9956 67.9021C20.402 67.5223 20.9551 67.3281 21.6572 67.3281C23.0684 67.3281 23.7764 68.0512 23.7764 69.4974V70.0038H22.3807V69.5302C22.3807 68.917 22.1243 68.6134 21.607 68.6134C21.0707 68.6134 20.8037 68.9015 20.8037 69.4749C20.8037 69.8665 20.8787 70.0934 21.1554 70.286C21.2913 70.3799 21.4212 70.4507 21.5367 70.5006C21.6524 70.5504 21.843 70.617 22.1053 70.7049C22.7716 70.9313 23.2591 71.2237 23.5761 71.5874C23.8921 71.9462 24.0481 72.4548 24.0481 73.099C24.0481 73.8833 23.8265 74.4792 23.3796 74.8917C22.9385 75.3059 22.3901 75.5102 21.7429 75.5102C21.0147 75.5102 20.4473 75.323 20.0408 74.9481C19.6344 74.5672 19.4282 74.0104 19.4282 73.2707V72.7074H20.8489V73.2272C20.8489 73.8886 21.1351 74.2201 21.7131 74.2201C22.2602 74.2201 22.6261 73.8833 22.6261 73.2927C22.6261 72.9563 22.5308 72.6902 22.3449 72.5095C22.1601 72.3276 21.7834 72.1286 21.2054 71.9242C20.538 71.6925 20.0706 71.4001 19.7941 71.0531C19.5235 70.7049 19.3877 70.1707 19.3877 69.4529C19.3877 68.7963 19.5892 68.283 19.9956 67.9021Z" fill="black"/>
<path fill-rule="evenodd" clip-rule="evenodd" d="M27.7197 67.3281H31.7199V68.6064H29.2088V70.6148H31.4461V71.8878H29.2088V74.2384H31.8153V75.5102H27.7197V67.3281Z" fill="black"/>
<path fill-rule="evenodd" clip-rule="evenodd" d="M37.9531 70.9399C38.2938 70.9399 38.565 70.8262 38.7629 70.6041C38.9644 70.375 39.0658 70.0956 39.0658 69.7699C39.0658 69.0688 38.6506 68.6059 37.9946 68.6059H37.1373V70.9399H37.9531ZM35.6289 67.3281H38.3256C39.023 67.3281 39.5726 67.5561 39.972 68.0067C40.3727 68.4584 40.5741 69.0232 40.5741 69.6911C40.5741 70.2275 40.441 70.6942 40.1747 71.0997C39.9085 71.4999 39.5934 71.7783 39.2306 71.9328L40.9955 75.5102H39.3064L37.787 72.2123H37.1373V75.5102H35.6289V67.3281Z" fill="black"/>
<path fill-rule="evenodd" clip-rule="evenodd" d="M45.5825 67.3281L46.9289 73.85L48.2777 67.3281H49.7517L47.9162 75.5102H45.9377L44.1025 67.3281H45.5825Z" fill="black"/>
<path fill-rule="evenodd" clip-rule="evenodd" d="M53.2822 67.3281H54.8357V75.5102H53.2822V67.3281Z" fill="black"/>
<path fill-rule="evenodd" clip-rule="evenodd" d="M58.79 69.822C58.79 69.0549 59.0175 68.4476 59.4765 68.0008C59.9355 67.555 60.494 67.3281 61.1555 67.3281C62.6425 67.3281 63.4505 68.2277 63.4505 69.8601V70.5113H62.023V69.9593C62.023 69.0602 61.726 68.6145 61.1255 68.6145C60.5205 68.6145 60.217 69.0602 60.217 69.9491V72.988C60.217 73.4246 60.3085 73.739 60.4845 73.9315C60.6615 74.1247 60.8785 74.2185 61.135 74.2185C61.685 74.2185 62.023 73.8334 62.023 73.1215V72.1383H63.4505V73.01C63.4505 74.594 62.6485 75.5102 61.135 75.5102C60.3995 75.5102 59.824 75.2887 59.4105 74.8429C58.9975 74.3961 58.79 73.717 58.79 72.7954V69.822Z" fill="black"/>
<path fill-rule="evenodd" clip-rule="evenodd" d="M67.2637 67.3281H71.2637V68.6064H68.7527V70.6143H70.9897V71.8872H68.7527V74.2373H71.3592V75.5102H67.2637V67.3281Z" fill="black"/>
<path fill-rule="evenodd" clip-rule="evenodd" d="M75.6393 67.9026C76.0453 67.5218 76.5978 67.3281 77.3013 67.3281C78.7118 67.3281 79.4203 68.0518 79.4203 69.4969V70.0044H78.0237V69.5307C78.0237 68.9176 77.7678 68.6139 77.2503 68.6139C76.7133 68.6139 76.4467 68.9004 76.4467 69.4744C76.4467 69.867 76.5227 70.0934 76.7987 70.2854C76.9347 70.3793 77.0642 70.4517 77.1813 70.5011C77.2952 70.551 77.4867 70.6164 77.7477 70.7049C78.4152 70.9313 78.9038 71.2242 79.2193 71.5879C79.5358 71.9462 79.6917 72.4537 79.6917 73.0985C79.6917 73.8822 79.4702 74.4782 79.0227 74.8917C78.5812 75.3064 78.0347 75.5102 77.3857 75.5102C76.6582 75.5102 76.0907 75.322 75.6847 74.9465C75.2777 74.5672 75.0717 74.0088 75.0717 73.2696V72.7074H76.4917V73.2267C76.4917 73.8886 76.7788 74.2196 77.3563 74.2196C77.9037 74.2196 78.2703 73.8822 78.2703 73.2921C78.2703 72.9558 78.1753 72.6902 77.9893 72.5084C77.8038 72.3271 77.4262 72.1281 76.8492 71.9242C76.1812 71.6925 75.7148 71.3996 75.4383 71.052C75.1668 70.7049 75.0312 70.1701 75.0312 69.4524C75.0312 68.7958 75.2323 68.283 75.6393 67.9026Z" fill="black"/>
</mask>
<g mask="url(#mask0_2106_1533)">
<path d="M19.3878 25.0923H79.6533V75.5106H19.3878V25.0923Z" fill="white"/>
</g>
</svg>
