<svg width="100" height="100" viewBox="0 0 100 100" fill="none" xmlns="http://www.w3.org/2000/svg">
<mask id="mask0_2121_9889" style="mask-type:alpha" maskUnits="userSpaceOnUse" x="19" y="25" width="61" height="51">
<path fill-rule="evenodd" clip-rule="evenodd" d="M19.3877 26.7224H27.1551V28.7365L19.3877 38.8436V26.7224Z" fill="black"/>
<path fill-rule="evenodd" clip-rule="evenodd" d="M19.3877 42.7764L27.1551 32.6311V58.9944H19.3877V42.7764Z" fill="black"/>
<path fill-rule="evenodd" clip-rule="evenodd" d="M53.0662 46.0654L52.9427 46.4079L52.8112 46.7321L52.6637 47.0643L52.5077 47.3795L52.3447 47.6869L52.1632 47.9944L51.9747 48.2929L51.7707 48.5745L51.5662 48.8562L51.3437 49.1288L51.1152 49.3936L50.8772 49.6416L50.6222 49.8884L50.3682 50.1197L50.1062 50.3497L49.8282 50.5626L49.5492 50.767L49.2622 50.9558L48.9592 51.1339L48.6557 51.3056L48.3437 51.467L48.0322 51.6119L47.7047 51.7401L47.3772 51.8602L47.0409 51.9697L46.705 52.0641L46.3605 52.1419L46.0088 52.21L45.6559 52.2604L45.2945 52.2942L44.9343 52.32L44.5657 52.3291L44.1064 52.32L43.6556 52.2776L43.2131 52.218L42.7697 52.1327L42.3357 52.0308L41.9188 51.9026L41.4994 51.7567L41.0897 51.5861L40.6968 51.3989L40.3112 51.1854L39.9342 50.9633L39.574 50.7166L39.2211 50.4518L38.8778 50.1701L38.549 49.8794L38.2372 49.5642L37.9423 49.2398L37.6559 48.8988L37.3937 48.5409L37.1397 48.1741L36.9101 47.798L36.6889 47.4053L36.4919 46.9958L36.3119 46.5862L36.1475 46.1598L36.0085 45.7244L35.8852 45.2813L35.7789 44.8291L35.7052 44.3679L35.6471 43.9067L35.606 43.4286L35.5988 42.9519L35.606 42.4649L35.6471 41.9958L35.7052 41.5268L35.7789 41.0579L35.8852 40.6044L36.0085 40.1613L36.1475 39.7258L36.3119 39.2994L36.4919 38.8808L36.6889 38.4712L36.9101 38.0799L37.1397 37.6949L37.3937 37.3279L37.6559 36.97L37.9423 36.6276L38.2372 36.3034L38.549 35.9881L38.8778 35.6987L39.2211 35.4171L39.574 35.1522L39.9342 34.9055L40.3112 34.6832L40.6968 34.47L41.0897 34.2814L41.4994 34.1109L41.9188 33.9663L42.3357 33.8382L42.7697 33.7272L43.2131 33.6497L43.6556 33.5902L44.1064 33.5476L44.5657 33.5399L44.9186 33.5476L45.263 33.5657L45.6063 33.5993L45.9423 33.6497L46.2796 33.7103L46.6143 33.7866L46.9431 33.881L47.2622 33.9752L47.5742 34.0942L47.8932 34.2129L48.1967 34.3499L48.4912 34.5037L48.7877 34.6575L49.0822 34.8279L49.3602 35.0075L49.6397 35.1949L49.9017 35.4004L50.1642 35.6135L50.4177 35.8267L50.6647 36.0566L50.9012 36.2957L51.1312 36.5437L51.3522 36.7994L51.5662 37.0631L51.7707 37.3279L51.9677 37.6096L52.1562 37.8913L52.3277 38.1897L52.4922 38.488L52.6552 38.7879L52.7952 39.103L52.9342 39.4184H60.9427L60.7782 38.6844L60.5897 37.9597L60.3687 37.2426L60.1232 36.5437L59.8442 35.8602L59.5407 35.1949L59.2132 34.5385L58.8602 33.8978L58.4762 33.2828L58.0737 32.6781L57.6482 32.0981L57.1962 31.5348L56.7297 30.9882L56.2377 30.4675L55.7217 29.9728L55.1882 29.4946L54.6397 29.0347L54.0742 28.6084L53.4832 28.1989L52.8777 27.823L52.2622 27.465L51.6232 27.1395L50.9752 26.841L50.3032 26.5684L49.6312 26.3293L48.9347 26.1162L48.2377 25.9379L47.5247 25.7828L46.7956 25.664L46.0571 25.5787L45.3198 25.527L44.5657 25.5103L43.7052 25.5362L42.8602 25.6046L42.0252 25.7143L41.2045 25.8681L40.4019 26.0568L39.6067 26.2945L38.8271 26.5684L38.0741 26.8849L37.3356 27.2337L36.6152 27.6175L35.9094 28.036L35.2374 28.4882L34.5823 28.9754L33.9501 29.4946L33.3447 30.0411L32.7622 30.6213L32.2049 31.2272L31.6804 31.859L31.1885 32.5153L30.7219 33.1989L30.2868 33.9067L29.8771 34.6407L29.5085 35.3912L29.1797 36.16L28.8775 36.9532L28.6152 37.7634L28.3856 38.5914L28.2055 39.4364L28.0568 40.2982L27.9505 41.1676L27.8852 42.0553L27.8611 42.9519L27.8852 43.8471L27.9505 44.7258L28.0568 45.5965L28.2055 46.4492L28.3856 47.2863L28.6152 48.1133L28.8775 48.9247L29.1797 49.7089L29.5085 50.4764L29.8771 51.2283L30.2868 51.9622L30.7219 52.6702L31.1885 53.3537L31.6804 54.0097L32.2049 54.64L32.7622 55.2478L33.3447 55.8185L33.9501 56.3743L34.5823 56.886L35.2374 57.3715L35.9094 57.8328L36.6152 58.2512L37.3356 58.6353L38.0741 58.984L38.8271 59.3005L39.6067 59.573L40.4019 59.8042L41.2045 59.9994L42.0252 60.1529L42.8602 60.2644L43.7052 60.3326L44.5657 60.3583L45.3283 60.3417L46.0898 60.2902L46.8354 60.1958L47.5657 60.0767L48.2957 59.9233L49.0087 59.7361L49.7047 59.514L50.3937 59.2656L51.0742 58.984L51.7292 58.6777L52.3687 58.3365L52.9997 57.9776L53.6062 57.585L54.2047 57.1671L54.7787 56.7229L55.3362 56.2541L55.8692 55.759L56.3852 55.2478L56.8767 54.7103L57.3532 54.147L57.8027 53.5747L58.2292 52.9685L58.6307 52.3548L59.0077 51.7143L59.3607 51.0669L59.6882 50.3924L59.9832 49.7089L60.2537 49.01L60.4992 48.2929L60.7132 47.5591L60.8932 46.8162L61.0492 46.0654H53.0662Z" fill="black"/>
<path fill-rule="evenodd" clip-rule="evenodd" d="M61.332 26.7224H69.0555V51.1859H79.6915L73.8005 58.9953H61.332V26.7224Z" fill="black"/>
<path fill-rule="evenodd" clip-rule="evenodd" d="M19.9956 67.9021C20.402 67.5223 20.9551 67.3281 21.6572 67.3281C23.0684 67.3281 23.7764 68.0512 23.7764 69.4974V70.0038H22.3807V69.5302C22.3807 68.917 22.1243 68.6134 21.607 68.6134C21.0707 68.6134 20.8037 68.9015 20.8037 69.4749C20.8037 69.8665 20.8787 70.0934 21.1554 70.286C21.2913 70.3799 21.4212 70.4507 21.5367 70.5006C21.6524 70.5504 21.843 70.617 22.1053 70.7049C22.7716 70.9313 23.2591 71.2237 23.5761 71.5874C23.8921 71.9462 24.0481 72.4548 24.0481 73.099C24.0481 73.8833 23.8265 74.4792 23.3796 74.8917C22.9385 75.3059 22.3901 75.5102 21.7429 75.5102C21.0147 75.5102 20.4473 75.323 20.0408 74.9481C19.6344 74.5672 19.4282 74.0104 19.4282 73.2707V72.7074H20.8489V73.2272C20.8489 73.8886 21.1351 74.2201 21.7131 74.2201C22.2602 74.2201 22.6261 73.8833 22.6261 73.2927C22.6261 72.9563 22.5308 72.6902 22.3449 72.5095C22.1601 72.3276 21.7834 72.1286 21.2054 71.9242C20.538 71.6925 20.0706 71.4001 19.7941 71.0531C19.5235 70.7049 19.3877 70.1707 19.3877 69.4529C19.3877 68.7963 19.5892 68.283 19.9956 67.9021Z" fill="black"/>
<path fill-rule="evenodd" clip-rule="evenodd" d="M27.72 67.3281H31.7202V68.6064H29.2091V70.6148H31.4464V71.8878H29.2091V74.2384H31.8155V75.5102H27.72V67.3281Z" fill="black"/>
<path fill-rule="evenodd" clip-rule="evenodd" d="M37.9526 70.9399C38.2933 70.9399 38.5645 70.8262 38.7624 70.6041C38.9639 70.375 39.0653 70.0956 39.0653 69.7699C39.0653 69.0688 38.6501 68.6059 37.9941 68.6059H37.1368V70.9399H37.9526ZM35.6284 67.3281H38.3251C39.0225 67.3281 39.5721 67.5561 39.9715 68.0067C40.3722 68.4584 40.5736 69.0232 40.5736 69.6911C40.5736 70.2275 40.4405 70.6942 40.1742 71.0997C39.908 71.4999 39.5929 71.7783 39.2301 71.9328L40.995 75.5102H39.3059L37.7865 72.2123H37.1368V75.5102H35.6284V67.3281Z" fill="black"/>
<path fill-rule="evenodd" clip-rule="evenodd" d="M45.5823 67.3281L46.9286 73.85L48.2775 67.3281H49.7515L47.916 75.5102H45.9375L44.1023 67.3281H45.5823Z" fill="black"/>
<path fill-rule="evenodd" clip-rule="evenodd" d="M53.2825 67.3281H54.836V75.5102H53.2825V67.3281Z" fill="black"/>
<path fill-rule="evenodd" clip-rule="evenodd" d="M58.79 69.822C58.79 69.0549 59.0175 68.4476 59.4765 68.0008C59.9355 67.555 60.494 67.3281 61.1555 67.3281C62.6425 67.3281 63.4505 68.2277 63.4505 69.8601V70.5113H62.023V69.9593C62.023 69.0602 61.726 68.6145 61.1255 68.6145C60.5205 68.6145 60.217 69.0602 60.217 69.9491V72.988C60.217 73.4246 60.3085 73.739 60.4845 73.9315C60.6615 74.1247 60.8785 74.2185 61.135 74.2185C61.685 74.2185 62.023 73.8334 62.023 73.1215V72.1383H63.4505V73.01C63.4505 74.594 62.6485 75.5102 61.135 75.5102C60.3995 75.5102 59.824 75.2887 59.4105 74.8429C58.9975 74.3961 58.79 73.717 58.79 72.7954V69.822Z" fill="black"/>
<path fill-rule="evenodd" clip-rule="evenodd" d="M67.2637 67.3281H71.2637V68.6064H68.7527V70.6143H70.9897V71.8872H68.7527V74.2373H71.3592V75.5102H67.2637V67.3281Z" fill="black"/>
<path fill-rule="evenodd" clip-rule="evenodd" d="M75.6393 67.9026C76.0453 67.5218 76.5978 67.3281 77.3013 67.3281C78.7118 67.3281 79.4203 68.0518 79.4203 69.4969V70.0044H78.0237V69.5307C78.0237 68.9176 77.7678 68.6139 77.2503 68.6139C76.7133 68.6139 76.4467 68.9004 76.4467 69.4744C76.4467 69.867 76.5227 70.0934 76.7987 70.2854C76.9347 70.3793 77.0642 70.4517 77.1813 70.5011C77.2952 70.551 77.4867 70.6164 77.7477 70.7049C78.4152 70.9313 78.9038 71.2242 79.2193 71.5879C79.5358 71.9462 79.6917 72.4537 79.6917 73.0985C79.6917 73.8822 79.4702 74.4782 79.0227 74.8917C78.5812 75.3064 78.0347 75.5102 77.3857 75.5102C76.6582 75.5102 76.0907 75.322 75.6847 74.9465C75.2777 74.5672 75.0717 74.0088 75.0717 73.2696V72.7074H76.4917V73.2267C76.4917 73.8886 76.7788 74.2196 77.3563 74.2196C77.9037 74.2196 78.2703 73.8822 78.2703 73.2921C78.2703 72.9558 78.1753 72.6902 77.9893 72.5084C77.8038 72.3271 77.4262 72.1281 76.8492 71.9242C76.1812 71.6925 75.7148 71.3996 75.4383 71.052C75.1668 70.7049 75.0312 70.1701 75.0312 69.4524C75.0312 68.7958 75.2323 68.283 75.6393 67.9026Z" fill="black"/>
</mask>
<g mask="url(#mask0_2121_9889)">
<path d="M19.3876 25.0923H79.6531V75.5106H19.3876V25.0923Z" fill="url(#paint0_linear_2121_9889)"/>
</g>
<defs>
<linearGradient id="paint0_linear_2121_9889" x1="20.5141" y1="37.0606" x2="54.9375" y2="83.93" gradientUnits="userSpaceOnUse">
<stop stop-color="#FF0024"/>
<stop offset="0.329281" stop-color="#FF611B"/>
<stop offset="0.704233" stop-color="#FFC312"/>
<stop offset="0.81425" stop-color="#FFA914"/>
<stop offset="0.875546" stop-color="#FF7D18"/>
<stop offset="1" stop-color="#FF0024"/>
</linearGradient>
</defs>
</svg>
