<svg width="100" height="100" viewBox="0 0 100 100" fill="none" xmlns="http://www.w3.org/2000/svg">
    <path fill-rule="evenodd" clip-rule="evenodd" d="M20 28.2122H27.7674V30.2262L20 40.3333V28.2122Z" fill="white"/>
    <path fill-rule="evenodd" clip-rule="evenodd" d="M20 44.2661L27.7674 34.1208V60.4841H20V44.2661Z" fill="white"/>
    <path fill-rule="evenodd" clip-rule="evenodd" d="M53.6787 47.5552L53.5552 47.8976L53.4237 48.2219L53.2762 48.554L53.1202 48.8693L52.9572 49.1767L52.7757 49.4841L52.5872 49.7826L52.3832 50.0643L52.1787 50.3459L51.9562 50.6185L51.7277 50.8834L51.4897 51.1314L51.2347 51.3782L50.9807 51.6094L50.7187 51.8394L50.4407 52.0524L50.1617 52.2567L49.8747 52.4456L49.5717 52.6237L49.2682 52.7953L48.9562 52.9568L48.6447 53.1016L48.3172 53.2298L47.9897 53.35L47.6535 53.4594L47.3175 53.5538L46.973 53.6316L46.6214 53.6997L46.2685 53.7502L45.9071 53.784L45.5468 53.8097L45.1782 53.8188L44.7189 53.8097L44.2682 53.7673L43.8257 53.7078L43.3822 53.6225L42.9483 53.5206L42.5314 53.3924L42.1119 53.2465L41.7022 53.0759L41.3093 52.8887L40.9238 52.6752L40.5467 52.4531L40.1866 52.2063L39.8337 51.9415L39.4903 51.6599L39.1616 51.3691L38.8497 51.054L38.5549 50.7296L38.2685 50.3885L38.0062 50.0306L37.7523 49.6638L37.5226 49.2878L37.3015 48.895L37.1045 48.4855L36.9244 48.0759L36.76 47.6496L36.6211 47.2141L36.4978 46.7711L36.3914 46.3188L36.3177 45.8576L36.2597 45.3964L36.2186 44.9184L36.2114 44.4416L36.2186 43.9546L36.2597 43.4855L36.3177 43.0166L36.3914 42.5476L36.4978 42.0941L36.6211 41.651L36.76 41.2155L36.9244 40.7892L37.1045 40.3705L37.3015 39.961L37.5226 39.5696L37.7523 39.1846L38.0062 38.8176L38.2685 38.4598L38.5549 38.1173L38.8497 37.7931L39.1616 37.4778L39.4903 37.1884L39.8337 36.9069L40.1866 36.6419L40.5467 36.3952L40.9238 36.173L41.3093 35.9598L41.7022 35.7712L42.1119 35.6007L42.5314 35.456L42.9483 35.328L43.3822 35.2169L43.8257 35.1395L44.2682 35.0799L44.7189 35.0374L45.1782 35.0297L45.5311 35.0374L45.8756 35.0554L46.2189 35.0891L46.5549 35.1395L46.8921 35.2001L47.2268 35.2763L47.5556 35.3707L47.8747 35.4649L48.1867 35.5839L48.5057 35.7027L48.8092 35.8396L49.1037 35.9934L49.4002 36.1472L49.6947 36.3177L49.9727 36.4972L50.2522 36.6847L50.5142 36.8901L50.7767 37.1033L51.0302 37.3165L51.2772 37.5463L51.5137 37.7854L51.7437 38.0334L51.9647 38.2892L52.1787 38.5528L52.3832 38.8176L52.5802 39.0993L52.7687 39.381L52.9402 39.6795L53.1047 39.9778L53.2677 40.2776L53.4077 40.5928L53.5467 40.9081H61.5552L61.3907 40.1742L61.2022 39.4495L60.9812 38.7324L60.7357 38.0334L60.4567 37.3499L60.1532 36.6847L59.8257 36.0283L59.4727 35.3875L59.0887 34.7725L58.6862 34.1678L58.2607 33.5878L57.8087 33.0245L57.3422 32.478L56.8502 31.9572L56.3342 31.4625L55.8007 30.9844L55.2522 30.5245L54.6867 30.0981L54.0957 29.6886L53.4902 29.3127L52.8747 28.9548L52.2357 28.6292L51.5877 28.3307L50.9157 28.0582L50.2437 27.8191L49.5472 27.6059L48.8502 27.4277L48.1372 27.2726L47.4082 27.1537L46.6697 27.0684L45.9324 27.0168L45.1782 27L44.3177 27.0259L43.4728 27.0944L42.6377 27.2041L41.817 27.3579L41.0145 27.5465L40.2192 27.7842L39.4396 28.0582L38.6866 28.3746L37.9482 28.7234L37.2278 29.1072L36.5219 29.5257L35.85 29.978L35.1948 30.4651L34.5627 30.9844L33.9573 31.5309L33.3747 32.111L32.8174 32.7169L32.2929 33.3487L31.801 34.0051L31.3344 34.6886L30.8993 35.3965L30.4896 36.1304L30.121 36.881L29.7922 37.6498L29.49 38.443L29.2278 39.2531L28.9981 40.0811L28.8181 40.9261L28.6693 41.7879L28.563 42.6573L28.4978 43.5451L28.4736 44.4416L28.4978 45.3369L28.563 46.2155L28.6693 47.0862L28.8181 47.939L28.9981 48.7761L29.2278 49.6031L29.49 50.4144L29.7922 51.1986L30.121 51.9661L30.4896 52.7181L30.8993 53.4519L31.3344 54.16L31.801 54.8434L32.2929 55.4994L32.8174 56.1297L33.3747 56.7375L33.9573 57.3083L34.5627 57.864L35.1948 58.3758L35.85 58.8612L36.5219 59.3226L37.2278 59.741L37.9482 60.1251L38.6866 60.4737L39.4396 60.7902L40.2192 61.0627L41.0145 61.2939L41.817 61.4892L42.6377 61.6426L43.4728 61.7542L44.3177 61.8223L45.1782 61.8481L45.9408 61.8314L46.7023 61.7799L47.448 61.6855L48.1782 61.5664L48.9082 61.413L49.6212 61.2258L50.3172 61.0037L51.0062 60.7554L51.6867 60.4737L52.3417 60.1674L52.9812 59.8263L53.6122 59.4674L54.2187 59.0747L54.8172 58.6569L55.3912 58.2127L55.9487 57.7439L56.4817 57.2487L56.9977 56.7375L57.4892 56.2L57.9657 55.6368L58.4152 55.0644L58.8417 54.4582L59.2432 53.8446L59.6202 53.2041L59.9732 52.5566L60.3007 51.8822L60.5957 51.1986L60.8662 50.4997L61.1117 49.7826L61.3257 49.0488L61.5057 48.306L61.6617 47.5552H53.6787Z" fill="white"/>
    <path fill-rule="evenodd" clip-rule="evenodd" d="M61.9443 28.2122H69.6678V52.6757H80.3038L74.4128 60.485H61.9443V28.2122Z" fill="white"/>
    <path fill-rule="evenodd" clip-rule="evenodd" d="M20.6079 69.3918C21.0143 69.0121 21.5675 68.8179 22.2695 68.8179C23.6808 68.8179 24.3887 69.541 24.3887 70.9872V71.4936H22.993V71.0199C22.993 70.4068 22.7366 70.1031 22.2193 70.1031C21.683 70.1031 21.4161 70.3912 21.4161 70.9647C21.4161 71.3562 21.4911 71.5832 21.7677 71.7757C21.9036 71.8696 22.0335 71.9404 22.1491 71.9903C22.2647 72.0402 22.4554 72.1067 22.7176 72.1947C23.3839 72.421 23.8714 72.7134 24.1885 73.0771C24.5044 73.436 24.6605 73.9445 24.6605 74.5887C24.6605 75.373 24.4388 75.969 23.9919 76.3815C23.5508 76.7956 23.0025 77 22.3552 77C21.6271 77 21.0596 76.8128 20.6532 76.4378C20.2467 76.0569 20.0406 75.5001 20.0406 74.7604V74.1972H21.4613V74.717C21.4613 75.3784 21.7474 75.7099 22.3254 75.7099C22.8725 75.7099 23.2385 75.373 23.2385 74.7824C23.2385 74.4461 23.1431 74.18 22.9573 73.9992C22.7724 73.8174 22.3958 73.6184 21.8177 73.414C21.1503 73.1822 20.6829 72.8899 20.4064 72.5428C20.1358 72.1947 20 71.6604 20 70.9427C20 70.2861 20.2015 69.7727 20.6079 69.3918Z" fill="white"/>
    <path fill-rule="evenodd" clip-rule="evenodd" d="M28.332 68.8179H32.3322V70.0962H29.8211V72.1046H32.0584V73.3775H29.8211V75.7281H32.4276V77H28.332V68.8179Z" fill="white"/>
    <path fill-rule="evenodd" clip-rule="evenodd" d="M38.5654 72.4296C38.9061 72.4296 39.1773 72.3159 39.3752 72.0938C39.5767 71.8648 39.6781 71.5853 39.6781 71.2597C39.6781 70.5586 39.2629 70.0956 38.6069 70.0956H37.7496V72.4296H38.5654ZM36.2412 68.8179H38.9379C39.6353 68.8179 40.1849 69.0459 40.5843 69.4965C40.985 69.9481 41.1864 70.513 41.1864 71.1808C41.1864 71.7173 41.0533 72.1839 40.787 72.5895C40.5208 72.9897 40.2057 73.2681 39.8429 73.4226L41.6078 77H39.9187L38.3993 73.702H37.7496V77H36.2412V68.8179Z" fill="white"/>
    <path fill-rule="evenodd" clip-rule="evenodd" d="M46.1948 68.8179L47.5412 75.3397L48.89 68.8179H50.364L48.5285 77H46.55L44.7148 68.8179H46.1948Z" fill="white"/>
    <path fill-rule="evenodd" clip-rule="evenodd" d="M53.8945 68.8179H55.448V77H53.8945V68.8179Z" fill="white"/>
    <path fill-rule="evenodd" clip-rule="evenodd" d="M59.4023 71.3117C59.4023 70.5446 59.6298 69.9374 60.0888 69.4906C60.5478 69.0448 61.1063 68.8179 61.7678 68.8179C63.2548 68.8179 64.0628 69.7175 64.0628 71.3498V72.001H62.6353V71.449C62.6353 70.55 62.3383 70.1042 61.7378 70.1042C61.1328 70.1042 60.8293 70.55 60.8293 71.4389V74.4777C60.8293 74.9144 60.9208 75.2287 61.0968 75.4213C61.2738 75.6144 61.4908 75.7083 61.7473 75.7083C62.2973 75.7083 62.6353 75.3231 62.6353 74.6113V73.628H64.0628V74.4997C64.0628 76.0838 63.2608 77 61.7473 77C61.0118 77 60.4363 76.7784 60.0228 76.3327C59.6098 75.8858 59.4023 75.2067 59.4023 74.2851V71.3117Z" fill="white"/>
    <path fill-rule="evenodd" clip-rule="evenodd" d="M67.876 68.8179H71.876V70.0962H69.365V72.104H71.602V73.377H69.365V75.727H71.9715V77H67.876V68.8179Z" fill="white"/>
    <path fill-rule="evenodd" clip-rule="evenodd" d="M76.2516 69.3924C76.6576 69.0115 77.2101 68.8179 77.9136 68.8179C79.3241 68.8179 80.0326 69.5415 80.0326 70.9866V71.4941H78.6361V71.0204C78.6361 70.4073 78.3801 70.1037 77.8626 70.1037C77.3256 70.1037 77.0591 70.3901 77.0591 70.9641C77.0591 71.3568 77.1351 71.5832 77.4111 71.7752C77.5471 71.8691 77.6766 71.9415 77.7936 71.9908C77.9076 72.0407 78.0991 72.1062 78.3601 72.1947C79.0276 72.421 79.5161 72.7139 79.8316 73.0776C80.1481 73.436 80.3041 73.9434 80.3041 74.5882C80.3041 75.3719 80.0826 75.9679 79.6351 76.3815C79.1936 76.7961 78.6471 77 77.9981 77C77.2706 77 76.7031 76.8117 76.2971 76.4362C75.8901 76.057 75.6841 75.4985 75.6841 74.7593V74.1972H77.1041V74.7164C77.1041 75.3784 77.3911 75.7093 77.9686 75.7093C78.5161 75.7093 78.8826 75.3719 78.8826 74.7819C78.8826 74.4455 78.7876 74.18 78.6016 73.9981C78.4161 73.8168 78.0386 73.6178 77.4616 73.414C76.7936 73.1822 76.3271 72.8893 76.0506 72.5417C75.7791 72.1947 75.6436 71.6599 75.6436 70.9421C75.6436 70.2855 75.8446 69.7727 76.2516 69.3924Z" fill="white"/>
</svg>
