<svg width="61" height="51" viewBox="0 0 61 51" fill="none" xmlns="http://www.w3.org/2000/svg">
<mask id="mask0_2106_777" style="mask-type:alpha" maskUnits="userSpaceOnUse" x="0" y="0" width="61" height="51">
<path fill-rule="evenodd" clip-rule="evenodd" d="M0 1.22656H7.85704V3.26387L0 13.4876V1.22656Z" fill="black"/>
<path fill-rule="evenodd" clip-rule="evenodd" d="M0 17.466L7.85704 7.20361V33.8712H0V17.466Z" fill="black"/>
<path fill-rule="evenodd" clip-rule="evenodd" d="M34.0673 20.7924L33.9424 21.1388L33.8093 21.4668L33.6601 21.8028L33.5023 22.1216L33.3375 22.4326L33.1539 22.7436L32.9632 23.0456L32.7568 23.3304L32.55 23.6154L32.3249 23.8911L32.0938 24.159L31.853 24.4099L31.5951 24.6595L31.3381 24.8934L31.0731 25.1261L30.7919 25.3415L30.5097 25.5482L30.2194 25.7392L29.9129 25.9194L29.6059 26.093L29.2903 26.2563L28.9752 26.4028L28.6439 26.5325L28.3126 26.6541L27.9725 26.7648L27.6327 26.8603L27.2842 26.939L26.9285 27.0079L26.5715 27.0589L26.2059 27.0931L25.8415 27.1191L25.4687 27.1283L25.0041 27.1191L24.5481 27.0762L24.1005 27.016L23.6519 26.9297L23.213 26.8266L22.7913 26.6969L22.367 26.5494L21.9526 26.3768L21.5551 26.1874L21.1651 25.9715L20.7837 25.7468L20.4194 25.4972L20.0624 25.2294L19.7151 24.9445L19.3826 24.6504L19.0671 24.3316L18.7689 24.0034L18.4792 23.6585L18.2139 23.2964L17.957 22.9254L17.7247 22.545L17.501 22.1477L17.3017 21.7335L17.1196 21.3192L16.9533 20.8879L16.8128 20.4474L16.688 19.9993L16.5805 19.5418L16.5059 19.0752L16.4472 18.6087L16.4056 18.1252L16.3983 17.6429L16.4056 17.1503L16.4472 16.6758L16.5059 16.2014L16.5805 15.7271L16.688 15.2683L16.8128 14.8201L16.9533 14.3796L17.1196 13.9483L17.3017 13.5249L17.501 13.1106L17.7247 12.7147L17.957 12.3252L18.2139 11.954L18.4792 11.592L18.7689 11.2456L19.0671 10.9177L19.3826 10.5987L19.7151 10.306L20.0624 10.0212L20.4194 9.75317L20.7837 9.50368L21.1651 9.27882L21.5551 9.06318L21.9526 8.8724L22.367 8.69995L22.7913 8.55361L23.213 8.42408L23.6519 8.31176L24.1005 8.23341L24.5481 8.17318L25.0041 8.13015L25.4687 8.12234L25.8256 8.13015L26.1741 8.14838L26.5213 8.1824L26.8612 8.23341L27.2024 8.29473L27.5409 8.37183L27.8735 8.46733L28.1963 8.56261L28.5119 8.68297L28.8346 8.8031L29.1416 8.94163L29.4395 9.0972L29.7394 9.25277L30.0373 9.42521L30.3185 9.60683L30.6012 9.79642L30.8663 10.0042L31.1318 10.2199L31.3882 10.4355L31.6381 10.668L31.8773 10.9099L32.1099 11.1608L32.3335 11.4194L32.55 11.6861L32.7568 11.954L32.9561 12.239L33.1468 12.5239L33.3202 12.8258L33.4867 13.1275L33.6515 13.4309L33.7931 13.7497L33.9338 14.0686H42.0347L41.8683 13.3262L41.6776 12.5931L41.4541 11.8678L41.2057 11.1608L40.9235 10.4694L40.6165 9.79642L40.2852 9.13247L39.9281 8.48431L39.5397 7.8622L39.1326 7.25056L38.7022 6.66383L38.2449 6.09403L37.7731 5.54121L37.2754 5.01444L36.7534 4.51404L36.2138 4.03035L35.6589 3.56516L35.0869 3.13389L34.4891 2.71966L33.8766 2.33939L33.254 1.97735L32.6076 1.64804L31.9521 1.34607L31.2724 1.07037L30.5926 0.828525L29.8881 0.612889L29.1831 0.43263L28.4618 0.275707L27.7244 0.155516L26.9773 0.069238L26.2315 0.0169866L25.4687 0L24.5982 0.0262102L23.7435 0.0954482L22.8989 0.206413L22.0687 0.361981L21.2569 0.552821L20.4524 0.793254L19.6638 1.07037L18.9022 1.39051L18.1552 1.74332L17.4265 2.13157L16.7125 2.55486L16.0328 3.01234L15.3701 3.50509L14.7306 4.03035L14.1182 4.58317L13.529 5.17001L12.9652 5.78289L12.4347 6.42199L11.9371 7.08593L11.4651 7.77734L11.025 8.49337L10.6106 9.23578L10.2377 9.99502L9.90511 10.7727L9.59942 11.575L9.33414 12.3945L9.10184 13.2321L8.91972 14.0868L8.76925 14.9586L8.66172 15.838L8.59572 16.736L8.57129 17.6429L8.59572 18.5485L8.66172 19.4373L8.76925 20.318L8.91972 21.1806L9.10184 22.0274L9.33414 22.8639L9.59942 23.6847L9.90511 24.4779L10.2377 25.2542L10.6106 26.0149L11.025 26.7572L11.4651 27.4734L11.9371 28.1647L12.4347 28.8283L12.9652 29.4659L13.529 30.0807L14.1182 30.6581L14.7306 31.2202L15.3701 31.7379L16.0328 32.2289L16.7125 32.6956L17.4265 33.1188L18.1552 33.5073L18.9022 33.86L19.6638 34.1802L20.4524 34.4558L21.2569 34.6897L22.0687 34.8872L22.8989 35.0424L23.7435 35.1553L24.5982 35.2242L25.4687 35.2502L26.2401 35.2334L27.0104 35.1813L27.7646 35.0858L28.5033 34.9654L29.2417 34.8102L29.9629 34.6208L30.667 34.3961L31.3639 34.1449L32.0523 33.86L32.7148 33.5502L33.3617 33.2051L34 32.8421L34.6135 32.4449L35.2189 32.0222L35.7995 31.5729L36.3635 31.0987L36.9026 30.5978L37.4246 30.0807L37.9218 29.537L38.4037 28.9673L38.8584 28.3883L39.2899 27.7751L39.696 27.1544L40.0773 26.5065L40.4344 25.8515L40.7657 25.1693L41.0641 24.4779L41.3377 23.7709L41.5861 23.0456L41.8025 22.3033L41.9846 21.5518L42.1424 20.7924H34.0673Z" fill="black"/>
<path fill-rule="evenodd" clip-rule="evenodd" d="M42.4287 1.22656H50.2413V25.9724H61.0001L55.0411 33.8718H42.4287V1.22656Z" fill="black"/>
<path fill-rule="evenodd" clip-rule="evenodd" d="M0.614966 42.8814C1.02601 42.4972 1.58554 42.3008 2.29569 42.3008C3.72323 42.3008 4.43935 43.0322 4.43935 44.4951V45.0074H3.02754V44.5282C3.02754 43.908 2.76823 43.6009 2.24496 43.6009C1.70242 43.6009 1.43239 43.8923 1.43239 44.4723C1.43239 44.8684 1.50826 45.098 1.7881 45.2928C1.92557 45.3877 2.05697 45.4594 2.17385 45.5098C2.29084 45.5603 2.48369 45.6276 2.74896 45.7166C3.42295 45.9455 3.91608 46.2413 4.23679 46.6092C4.55638 46.9722 4.71424 47.4866 4.71424 48.1383C4.71424 48.9316 4.49008 49.5344 4.03797 49.9517C3.59183 50.3706 3.0371 50.5773 2.38238 50.5773C1.64583 50.5773 1.07183 50.3879 0.660689 50.0087C0.249548 49.6234 0.0410182 49.0602 0.0410182 48.3119V47.7422H1.47811V48.2679C1.47811 48.937 1.76757 49.2723 2.35224 49.2723C2.9057 49.2723 3.27582 48.9316 3.27582 48.3341C3.27582 47.9939 3.17937 47.7248 2.99138 47.5419C2.8044 47.358 2.4234 47.1567 1.83868 46.9499C1.16358 46.7155 0.690832 46.4198 0.411141 46.0687C0.137418 45.7166 0 45.1761 0 44.4501C0 43.7859 0.203825 43.2666 0.614966 42.8814Z" fill="black"/>
<path fill-rule="evenodd" clip-rule="evenodd" d="M8.42773 42.3008H12.4741V43.5938H9.93402V45.6254H12.1971V46.913H9.93402V49.2908H12.5706V50.5773H8.42773V42.3008Z" fill="black"/>
<path fill-rule="evenodd" clip-rule="evenodd" d="M18.7797 45.9542C19.1244 45.9542 19.3986 45.8392 19.5988 45.6145C19.8027 45.3828 19.9052 45.1001 19.9052 44.7708C19.9052 44.0616 19.4852 43.5933 18.8217 43.5933H17.9545V45.9542H18.7797ZM16.4287 42.3008H19.1565C19.8619 42.3008 20.4179 42.5314 20.8219 42.9872C21.2272 43.4441 21.4309 44.0154 21.4309 44.691C21.4309 45.2336 21.2963 45.7057 21.0269 46.1159C20.7576 46.5207 20.439 46.8023 20.0719 46.9586L21.8572 50.5773H20.1487L18.6117 47.2413H17.9545V50.5773H16.4287V42.3008Z" fill="black"/>
<path fill-rule="evenodd" clip-rule="evenodd" d="M26.4971 42.3008L27.859 48.8979L29.2234 42.3008H30.7144L28.8577 50.5773H26.8564L25 42.3008H26.4971Z" fill="black"/>
<path fill-rule="evenodd" clip-rule="evenodd" d="M34.2852 42.3008H35.8566V50.5773H34.2852V42.3008Z" fill="black"/>
<path fill-rule="evenodd" clip-rule="evenodd" d="M39.8564 44.8234C39.8564 44.0475 40.0866 43.4332 40.5509 42.9812C41.0152 42.5303 41.5801 42.3008 42.2492 42.3008C43.7534 42.3008 44.5707 43.2107 44.5707 44.8619V45.5207H43.1268V44.9623C43.1268 44.0529 42.8263 43.602 42.2189 43.602C41.6069 43.602 41.2999 44.0529 41.2999 44.952V48.0259C41.2999 48.4676 41.3925 48.7856 41.5705 48.9804C41.7495 49.1757 41.969 49.2707 42.2285 49.2707C42.7849 49.2707 43.1268 48.8811 43.1268 48.1611V47.1664H44.5707V48.0482C44.5707 49.6505 43.7595 50.5773 42.2285 50.5773C41.4845 50.5773 40.9024 50.3532 40.4841 49.9023C40.0663 49.4503 39.8564 48.7634 39.8564 47.8311V44.8234Z" fill="black"/>
<path fill-rule="evenodd" clip-rule="evenodd" d="M48.4277 42.3008H52.4739V43.5938H49.9339V45.6249H52.1967V46.9125H49.9339V49.2897H52.5705V50.5773H48.4277V42.3008Z" fill="black"/>
<path fill-rule="evenodd" clip-rule="evenodd" d="M56.9002 42.8819C57.3109 42.4967 57.8697 42.3008 58.5814 42.3008C60.0081 42.3008 60.7248 43.0328 60.7248 44.4946V45.0079H59.3122V44.5288C59.3122 43.9086 59.0532 43.6014 58.5298 43.6014C57.9866 43.6014 57.717 43.8912 57.717 44.4718C57.717 44.869 57.7939 45.098 58.0731 45.2922C58.2106 45.3872 58.3416 45.4604 58.46 45.5104C58.5753 45.5608 58.769 45.627 59.033 45.7166C59.7082 45.9455 60.2023 46.2418 60.5215 46.6097C60.8416 46.9722 60.9994 47.4855 60.9994 48.1377C60.9994 48.9305 60.7754 49.5333 60.3227 49.9517C59.8761 50.3711 59.3233 50.5773 58.6668 50.5773C57.9309 50.5773 57.3569 50.3869 56.9462 50.007C56.5345 49.6234 56.3261 49.0585 56.3261 48.3108V47.7422H57.7625V48.2674C57.7625 48.937 58.0528 49.2718 58.637 49.2718C59.1908 49.2718 59.5615 48.9305 59.5615 48.3336C59.5615 47.9934 59.4654 47.7248 59.2773 47.5408C59.0897 47.3574 58.7078 47.1561 58.1241 46.9499C57.4484 46.7155 56.9765 46.4192 56.6969 46.0676C56.4222 45.7166 56.2852 45.1756 56.2852 44.4495C56.2852 43.7854 56.4885 43.2666 56.9002 42.8819Z" fill="black"/>
</mask>
<g mask="url(#mask0_2106_777)">
<path d="M-0.00104141 -0.422363H60.96V50.5778H-0.00104141V-0.422363Z" fill="white"/>
</g>
</svg>
