<svg width="105" height="105" viewBox="0 0 105 105" fill="none" xmlns="http://www.w3.org/2000/svg">
<rect width="104.66" height="104.66" fill="#336CC7"/>
<path d="M40.7957 36.6016C40.7952 37.5553 40.4159 38.4698 39.7412 39.1438C39.0664 39.8179 38.1516 40.1963 37.1978 40.1958C36.2441 40.1954 35.3296 39.816 34.6555 39.1413C33.9815 38.4666 33.603 37.5517 33.6035 36.598C33.604 35.6442 33.9833 34.7297 34.6581 34.0557C35.3328 33.3816 36.2477 33.0032 37.2014 33.0037C38.1551 33.0041 39.0696 33.3835 39.7437 34.0582C40.4178 34.7329 40.7962 35.6478 40.7957 36.6016ZM40.9036 42.8587H33.7114V65.3703H40.9036V42.8587ZM52.2672 42.8587H45.111V65.3703H52.1953V53.5571C52.1953 46.9763 60.772 46.3649 60.772 53.5571V65.3703H67.8743V51.1118C67.8743 40.0178 55.1801 40.4314 52.1953 45.8795L52.2672 42.8587Z" fill="white"/>
</svg>
