<svg width="105" height="105" viewBox="0 0 105 105" fill="none" xmlns="http://www.w3.org/2000/svg">
<rect width="104.66" height="104.66" fill="#F31919"/>
<path d="M48.5 57.4967L57.5825 52.2467L48.5 46.9967V57.4967ZM68.73 43.7942C68.9575 44.6167 69.115 45.7192 69.22 47.1192C69.3425 48.5192 69.395 49.7267 69.395 50.7767L69.5 52.2467C69.5 56.0792 69.22 58.8967 68.73 60.6992C68.2925 62.2742 67.2775 63.2892 65.7025 63.7267C64.88 63.9542 63.375 64.1117 61.065 64.2167C58.79 64.3392 56.7075 64.3917 54.7825 64.3917L52 64.4967C44.6675 64.4967 40.1 64.2167 38.2975 63.7267C36.7225 63.2892 35.7075 62.2742 35.27 60.6992C35.0425 59.8767 34.885 58.7742 34.78 57.3742C34.6575 55.9742 34.605 54.7667 34.605 53.7167L34.5 52.2467C34.5 48.4142 34.78 45.5967 35.27 43.7942C35.7075 42.2192 36.7225 41.2042 38.2975 40.7667C39.12 40.5392 40.625 40.3817 42.935 40.2767C45.21 40.1542 47.2925 40.1017 49.2175 40.1017L52 39.9967C59.3325 39.9967 63.9 40.2767 65.7025 40.7667C67.2775 41.2042 68.2925 42.2192 68.73 43.7942Z" fill="white"/>
</svg>
