<svg width="105" height="105" viewBox="0 0 105 105" fill="none" xmlns="http://www.w3.org/2000/svg">
<rect width="104.66" height="104.66" fill="#4486E2"/>
<path fill-rule="evenodd" clip-rule="evenodd" d="M63.4782 38.3203C63.8962 38.1443 64.3538 38.0837 64.8032 38.1446C65.2527 38.2055 65.6776 38.3857 66.0337 38.6665C66.3899 38.9474 66.6642 39.3186 66.8283 39.7414C66.9923 40.1643 67.04 40.6234 66.9664 41.0709L63.1297 64.3429C62.7575 66.5877 60.2945 67.875 58.2358 66.7568C56.5137 65.8214 53.9559 64.3801 51.6553 62.8762C50.505 62.1234 46.9813 59.7128 47.4143 57.9975C47.7865 56.5308 53.7072 51.0195 57.0905 47.7428C58.4185 46.4554 57.8129 45.7128 56.2447 46.8969C52.3505 49.837 46.0982 54.308 44.031 55.5666C42.2074 56.6763 41.2567 56.8658 40.1199 56.6763C38.046 56.3312 36.1226 55.7967 34.5527 55.1454C32.4314 54.2657 32.5346 51.3493 34.551 50.5001L63.4782 38.3203Z" fill="white"/>
</svg>
