<svg width="105" height="105" viewBox="0 0 105 105" fill="none" xmlns="http://www.w3.org/2000/svg">
<rect width="104.66" height="104.66" fill="#070707"/>
<path d="M55.1662 49.0687H43.1121V44.2394H55.1662C55.8703 44.2394 56.3599 44.3636 56.6056 44.5806C56.8513 44.7976 57.0035 45.2 57.0035 45.7879V47.522C57.0035 48.1414 56.8513 48.5439 56.6056 48.7609C56.3599 48.9779 55.8703 49.0706 55.1662 49.0706V49.0687ZM55.9932 39.6863H38V60.3391H43.1121V53.6199H52.5332L57.0035 60.3391H62.728L57.7993 53.5884C59.6164 53.3158 60.4324 52.752 61.1053 51.8228C61.7782 50.8937 62.1156 49.4081 62.1156 47.4256V45.877C62.1156 44.7011 61.9928 43.772 61.7782 43.0598C61.5637 42.3477 61.197 41.7282 60.6762 41.1718C60.1262 40.6451 59.5137 40.2742 58.7784 40.0257C58.0432 39.8087 57.1245 39.6844 55.9932 39.6844V39.6863Z" fill="#F31919"/>
<path d="M66.0739 39.6847C68.243 39.6847 70.0013 37.9264 70.0013 35.7574C70.0013 33.5884 68.243 31.8301 66.0739 31.8301C63.9048 31.8301 62.1465 33.5884 62.1465 35.7574C62.1465 37.9264 63.9048 39.6847 66.0739 39.6847Z" fill="#F31919"/>
</svg>
