<svg width="105" height="105" viewBox="0 0 105 105" fill="none" xmlns="http://www.w3.org/2000/svg">
<rect width="104.66" height="104.66" fill="#070707"/>
<rect x="18.9609" y="18.9602" width="67.4153" height="67.4153" rx="33.7076" fill="#070707"/>
<path d="M71.1416 51.4664C71.145 51.4664 71.1475 51.4664 71.1509 51.4664C71.3885 51.4664 71.6149 51.3668 71.7758 51.1923C71.9393 51.0152 72.0202 50.7777 71.9989 50.5376C71.1441 41.1356 63.7004 33.6893 54.2976 32.8328C54.0592 32.8141 53.8191 32.8916 53.642 33.0559C53.4649 33.2194 53.3661 33.4501 53.3687 33.691C53.5168 46.1861 55.1651 51.2919 71.1416 51.4664ZM71.1416 53.1931C55.1651 53.3676 53.5177 58.4734 53.3695 70.9685C53.367 71.2094 53.4658 71.4401 53.6428 71.6036C53.8012 71.7492 54.0081 71.8301 54.2209 71.8301C54.2465 71.8301 54.2729 71.8292 54.2984 71.8267C63.7012 70.9702 71.145 63.5247 71.9989 54.1219C72.0202 53.8818 71.9402 53.6443 71.7758 53.4672C71.6115 53.2901 71.3825 53.2024 71.1416 53.1931ZM50.6476 32.8371C41.2746 33.7183 33.8547 41.1629 33.0042 50.5393C32.9829 50.7794 33.0629 51.0169 33.2273 51.194C33.3882 51.3685 33.6155 51.4673 33.8522 51.4673C33.8556 51.4673 33.859 51.4673 33.8624 51.4673C49.786 51.2842 51.4301 46.181 51.5799 33.6944C51.5825 33.4535 51.4829 33.2219 51.3058 33.0584C51.127 32.895 50.8877 32.8149 50.6476 32.8371ZM33.8616 53.1922C33.5968 53.1624 33.389 53.2884 33.2264 53.4655C33.0629 53.6426 32.9821 53.8801 33.0033 54.1202C33.8539 63.4966 41.2746 70.9412 50.6476 71.8224C50.674 71.825 50.7013 71.8258 50.7277 71.8258C50.9405 71.8258 51.1466 71.7458 51.3049 71.6002C51.482 71.4367 51.5816 71.2052 51.5791 70.9642C51.4292 58.4785 49.786 53.3753 33.8616 53.1922Z" fill="white"/>
</svg>
