<svg width="20" height="20" viewBox="0 0 20 20" fill="none" xmlns="http://www.w3.org/2000/svg">
<path d="M6.60059 11.2241C7.77546 11.2243 8.7168 12.1756 8.7168 13.3589V16.1997C8.71673 17.3746 7.77542 18.3324 6.60059 18.3325H3.7832C2.61678 18.3323 1.66706 17.3745 1.66699 16.1997V13.3589C1.66699 12.1757 2.61674 11.2244 3.7832 11.2241H6.60059ZM16.2168 11.2241C17.3835 11.2241 18.334 12.1756 18.334 13.3589V16.1997C18.3339 17.3747 17.3834 18.3325 16.2168 18.3325H13.4004C12.2254 18.3325 11.2842 17.3746 11.2842 16.1997V13.3589C11.2842 12.1756 12.2254 11.2241 13.4004 11.2241H16.2168ZM6.60059 1.6665C7.77534 1.66665 8.7166 2.62472 8.7168 3.80029V6.64111C8.7168 7.82436 7.77546 8.77476 6.60059 8.7749H3.7832C2.61674 8.77466 1.66699 7.82429 1.66699 6.64111V3.80029C1.6672 2.62479 2.61687 1.66675 3.7832 1.6665H6.60059ZM16.2168 1.6665C17.3833 1.6665 18.3338 2.62463 18.334 3.80029V6.64111C18.334 7.82445 17.3835 8.7749 16.2168 8.7749H13.4004C12.2254 8.77489 11.2842 7.82444 11.2842 6.64111V3.80029C11.2844 2.62464 12.2255 1.66651 13.4004 1.6665H16.2168Z" fill="#848484"/>
</svg>
