<svg width="28" height="28" viewBox="0 0 28 28" fill="none" xmlns="http://www.w3.org/2000/svg">
<path fill-rule="evenodd" clip-rule="evenodd" d="M2.80005 11.9975C2.80005 17.0914 6.90339 21.1949 11.9972 21.1949C14.2887 21.1949 16.3797 20.3644 17.9869 18.987L24.1997 25.2V23.2158L18.9872 17.9865C20.3642 16.3794 21.1943 14.2887 21.1943 11.9975C21.1943 6.90351 17.091 2.80005 11.9972 2.80005C6.90339 2.80005 2.80005 6.90351 2.80005 11.9975ZM4.21499 11.9975C4.21499 7.68178 7.68157 4.21504 11.9972 4.21504C16.3128 4.21504 19.7794 7.68178 19.7794 11.9975C19.7794 16.3132 16.3128 19.7799 11.9972 19.7799C7.68157 19.7799 4.21499 16.3132 4.21499 11.9975Z" fill="#A9A9A9"/>
</svg>
