<svg width="28" height="28" viewBox="0 0 28 28" fill="none" xmlns="http://www.w3.org/2000/svg">
<path fill-rule="evenodd" clip-rule="evenodd" d="M2.7998 11.9975C2.7998 17.0914 6.90314 21.1949 11.997 21.1949C14.2884 21.1949 16.3795 20.3644 17.9867 18.987L24.1995 25.2V23.2158L18.987 17.9865C20.3639 16.3794 21.1941 14.2887 21.1941 11.9975C21.1941 6.90351 17.0907 2.80005 11.997 2.80005C6.90314 2.80005 2.7998 6.90351 2.7998 11.9975ZM4.21475 11.9975C4.21475 7.68178 7.68132 4.21504 11.997 4.21504C16.3125 4.21504 19.7791 7.68178 19.7791 11.9975C19.7791 16.3132 16.3125 19.7799 11.997 19.7799C7.68132 19.7799 4.21475 16.3132 4.21475 11.9975Z" fill="#BFBFBF"/>
</svg>
